HIERARCHY
ROOT Root
{
  OFFSET 0.0 0.0 0.0
  CHANNELS 6 Xposition Yposition Zposition Zrotation Yrotation Xrotation
  JOINT Hips
  {
    OFFSET 0.0 100.0 0.0
    CHANNELS 6 Xposition Yposition Zposition Zrotation Yrotation Xrotation
    JOINT Spine1
    {
      OFFSET -0.013727 5.003763 -0.053727
      CHANNELS 3 Zrotation Yrotation Xrotation
      JOINT Spine2
      {
        OFFSET -0.0 7.125301 -0.029825
        CHANNELS 3 Zrotation Yrotation Xrotation
        JOINT Chest
        {
          OFFSET -1e-06 7.550063 -0.815971
          CHANNELS 3 Zrotation Yrotation Xrotation
          JOINT Neck1
          {
            OFFSET -0.181677 26.311295 -0.553348
            CHANNELS 3 Zrotation Yrotation Xrotation
            JOINT Neck2
            {
              OFFSET -3e-06 7.709397 2.302585
              CHANNELS 3 Zrotation Yrotation Xrotation
              JOINT Head
              {
                OFFSET -5e-06 6.128916 1.953709
                CHANNELS 3 Zrotation Yrotation Xrotation
                JOINT HeadEnd
                {
                  OFFSET 0.003598 16.065403 -1.835379
                  CHANNELS 3 Zrotation Yrotation Xrotation
                }
                JOINT Jaw
                {
                  OFFSET 0.002637 0.475592 3.094941
                  CHANNELS 3 Zrotation Yrotation Xrotation
                }
                JOINT LeftEye
                {
                  OFFSET 3.206381 5.380205 7.586883
                  CHANNELS 3 Zrotation Yrotation Xrotation
                }
                JOINT RightEye
                {
                  OFFSET -3.22244 5.361869 7.558234
                  CHANNELS 3 Zrotation Yrotation Xrotation
                }
              }
            }
          }
          JOINT LeftShoulder
          {
            OFFSET 1.621652 23.237164 5.113413
            CHANNELS 3 Zrotation Yrotation Xrotation
            JOINT LeftArm
            {
              OFFSET 14.919846 2e-06 -5.502326
              CHANNELS 3 Zrotation Yrotation Xrotation
              JOINT LeftForeArm
              {
                OFFSET 28.739307 0.0 -0.002588
                CHANNELS 3 Zrotation Yrotation Xrotation
                JOINT LeftHand
                {
                  OFFSET 27.093981 -1e-06 0.002609
                  CHANNELS 3 Zrotation Yrotation Xrotation
                  JOINT LeftHandThumb1
                  {
                    OFFSET 2.276482 -1.392045 3.191413
                    CHANNELS 3 Zrotation Yrotation Xrotation
                    JOINT LeftHandThumb2
                    {
                      OFFSET 4.012836 -1.828127 1.641654
                      CHANNELS 3 Zrotation Yrotation Xrotation
                      JOINT LeftHandThumb3
                      {
                        OFFSET 2.798515 0.0 -3e-06
                        CHANNELS 3 Zrotation Yrotation Xrotation
                        JOINT LeftHandThumbEnd
                        {
                          OFFSET 3.180793 -4e-06 4e-06
                          CHANNELS 3 Zrotation Yrotation Xrotation
                        }
                      }
                    }
                  }
                  JOINT LeftHandIndex1
                  {
                    OFFSET 3.247555 -0.531998 2.296169
                    CHANNELS 3 Zrotation Yrotation Xrotation
                    JOINT LeftHandIndex2
                    {
                      OFFSET 6.364578 0.01206 0.1786
                      CHANNELS 3 Zrotation Yrotation Xrotation
                      JOINT LeftHandIndex3
                      {
                        OFFSET 3.662364 0.0 0.0
                        CHANNELS 3 Zrotation Yrotation Xrotation
                        JOINT LeftHandIndex4
                        {
                          OFFSET 2.329242 4e-06 4e-06
                          CHANNELS 3 Zrotation Yrotation Xrotation
                          JOINT LeftHandIndexEnd
                          {
                            OFFSET 2.759615 -0.180537 -0.113024
                            CHANNELS 3 Zrotation Yrotation Xrotation
                          }
                        }
                      }
                    }
                  }
                  JOINT LeftHandMiddle1
                  {
                    OFFSET 3.163495 0.240981 1.000332
                    CHANNELS 3 Zrotation Yrotation Xrotation
                    JOINT LeftHandMiddle2
                    {
                      OFFSET 6.19078 -0.259278 -1.002548
                      CHANNELS 3 Zrotation Yrotation Xrotation
                      JOINT LeftHandMiddle3
                      {
                        OFFSET 4.35652 -4e-06 -1e-06
                        CHANNELS 3 Zrotation Yrotation Xrotation
                        JOINT LeftHandMiddle4
                        {
                          OFFSET 2.996877 -8e-06 0.0
                          CHANNELS 3 Zrotation Yrotation Xrotation
                          JOINT LeftHandMiddleEnd
                          {
                            OFFSET 2.304287 -0.294569 -0.031741
                            CHANNELS 3 Zrotation Yrotation Xrotation
                          }
                        }
                      }
                    }
                  }
                  JOINT LeftHandRing1
                  {
                    OFFSET 2.882643 -0.053652 -0.322543
                    CHANNELS 3 Zrotation Yrotation Xrotation
                    JOINT LeftHandRing2
                    {
                      OFFSET 5.854541 -0.486202 -1.373841
                      CHANNELS 3 Zrotation Yrotation Xrotation
                      JOINT LeftHandRing3
                      {
                        OFFSET 4.350578 0.0 3e-06
                        CHANNELS 3 Zrotation Yrotation Xrotation
                        JOINT LeftHandRing4
                        {
                          OFFSET 2.651321 7e-06 2e-06
                          CHANNELS 3 Zrotation Yrotation Xrotation
                          JOINT LeftHandRingEnd
                          {
                            OFFSET 1.936105 0.077687 -7.1e-05
                            CHANNELS 3 Zrotation Yrotation Xrotation
                          }
                        }
                      }
                    }
                  }
                  JOINT LeftHandPinky1
                  {
                    OFFSET 2.8655 -0.310005 -1.600378
                    CHANNELS 3 Zrotation Yrotation Xrotation
                    JOINT LeftHandPinky2
                    {
                      OFFSET 5.087849 -1.331141 -1.77123
                      CHANNELS 3 Zrotation Yrotation Xrotation
                      JOINT LeftHandPinky3
                      {
                        OFFSET 3.070974 4e-06 0.0
                        CHANNELS 3 Zrotation Yrotation Xrotation
                        JOINT LeftHandPinky4
                        {
                          OFFSET 1.549672 0.0 1e-06
                          CHANNELS 3 Zrotation Yrotation Xrotation
                          JOINT LeftHandPinkyEnd
                          {
                            OFFSET 1.944893 -0.157802 0.057219
                            CHANNELS 3 Zrotation Yrotation Xrotation
                          }
                        }
                      }
                    }
                  }
                }
              }
            }
          }
          JOINT RightShoulder
          {
            OFFSET -1.380118 23.180309 5.214158
            CHANNELS 3 Zrotation Yrotation Xrotation
            JOINT RightArm
            {
              OFFSET -15.037196 1.2e-05 -5.545604
              CHANNELS 3 Zrotation Yrotation Xrotation
              JOINT RightForeArm
              {
                OFFSET -28.736639 2e-06 -0.002597
                CHANNELS 3 Zrotation Yrotation Xrotation
                JOINT RightHand
                {
                  OFFSET -27.133619 -0.0 0.002613
                  CHANNELS 3 Zrotation Yrotation Xrotation
                  JOINT RightHandThumb1
                  {
                    OFFSET -2.274032 -1.383988 3.163127
                    CHANNELS 3 Zrotation Yrotation Xrotation
                    JOINT RightHandThumb2
                    {
                      OFFSET -4.011429 -1.827466 1.640914
                      CHANNELS 3 Zrotation Yrotation Xrotation
                      JOINT RightHandThumb3
                      {
                        OFFSET -2.794935 -4e-06 -3e-06
                        CHANNELS 3 Zrotation Yrotation Xrotation
                        JOINT RightHandThumbEnd
                        {
                          OFFSET -3.183852 4e-06 1e-06
                          CHANNELS 3 Zrotation Yrotation Xrotation
                        }
                      }
                    }
                  }
                  JOINT RightHandIndex1
                  {
                    OFFSET -3.253266 -0.520057 2.282866
                    CHANNELS 3 Zrotation Yrotation Xrotation
                    JOINT RightHandIndex2
                    {
                      OFFSET -6.341917 0.012471 0.178266
                      CHANNELS 3 Zrotation Yrotation Xrotation
                      JOINT RightHandIndex3
                      {
                        OFFSET -3.654871 -8e-06 -0.0
                        CHANNELS 3 Zrotation Yrotation Xrotation
                        JOINT RightHandIndex4
                        {
                          OFFSET -2.327586 0.0 1e-06
                          CHANNELS 3 Zrotation Yrotation Xrotation
                          JOINT RightHandIndexEnd
                          {
                            OFFSET -2.76179 -0.180656 -0.113078
                            CHANNELS 3 Zrotation Yrotation Xrotation
                          }
                        }
                      }
                    }
                  }
                  JOINT RightHandMiddle1
                  {
                    OFFSET -3.168106 0.246593 1.00103
                    CHANNELS 3 Zrotation Yrotation Xrotation
                    JOINT RightHandMiddle2
                    {
                      OFFSET -6.180828 -0.258836 -1.000895
                      CHANNELS 3 Zrotation Yrotation Xrotation
                      JOINT RightHandMiddle3
                      {
                        OFFSET -4.348901 0.0 -0.0
                        CHANNELS 3 Zrotation Yrotation Xrotation
                        JOINT RightHandMiddle4
                        {
                          OFFSET -3.00024 -4e-06 -2e-06
                          CHANNELS 3 Zrotation Yrotation Xrotation
                          JOINT RightHandMiddleEnd
                          {
                            OFFSET -2.30252 -0.29437 -0.031706
                            CHANNELS 3 Zrotation Yrotation Xrotation
                          }
                        }
                      }
                    }
                  }
                  JOINT RightHandRing1
                  {
                    OFFSET -2.88569 -0.067952 -0.308858
                    CHANNELS 3 Zrotation Yrotation Xrotation
                    JOINT RightHandRing2
                    {
                      OFFSET -5.854198 -0.48613 -1.373731
                      CHANNELS 3 Zrotation Yrotation Xrotation
                      JOINT RightHandRing3
                      {
                        OFFSET -4.33881 -4e-06 -0.0
                        CHANNELS 3 Zrotation Yrotation Xrotation
                        JOINT RightHandRing4
                        {
                          OFFSET -2.654903 -4e-06 4e-06
                          CHANNELS 3 Zrotation Yrotation Xrotation
                          JOINT RightHandRingEnd
                          {
                            OFFSET -1.933568 0.077527 -5.2e-05
                            CHANNELS 3 Zrotation Yrotation Xrotation
                          }
                        }
                      }
                    }
                  }
                  JOINT RightHandPinky1
                  {
                    OFFSET -2.866425 -0.342796 -1.584145
                    CHANNELS 3 Zrotation Yrotation Xrotation
                    JOINT RightHandPinky2
                    {
                      OFFSET -5.091371 -1.332055 -1.772385
                      CHANNELS 3 Zrotation Yrotation Xrotation
                      JOINT RightHandPinky3
                      {
                        OFFSET -3.062664 -4e-06 1e-06
                        CHANNELS 3 Zrotation Yrotation Xrotation
                        JOINT RightHandPinky4
                        {
                          OFFSET -1.546529 4e-06 -2e-06
                          CHANNELS 3 Zrotation Yrotation Xrotation
                          JOINT RightHandPinkyEnd
                          {
                            OFFSET -1.945119 -0.157718 0.057211
                            CHANNELS 3 Zrotation Yrotation Xrotation
                          }
                        }
                      }
                    }
                  }
                }
              }
            }
          }
        }
      }
    }
    JOINT LeftLeg
    {
      OFFSET 10.043214 -8.434526 2.595655
      CHANNELS 3 Zrotation Yrotation Xrotation
      JOINT LeftShin
      {
        OFFSET -1e-06 -43.221752 -0.802913
        CHANNELS 3 Zrotation Yrotation Xrotation
        JOINT LeftFoot
        {
          OFFSET 1e-06 -42.155094 -3.481523
          CHANNELS 3 Zrotation Yrotation Xrotation
          JOINT LeftToeBase
          {
            OFFSET 0.0 -5.059472 13.231529
            CHANNELS 3 Zrotation Yrotation Xrotation
            JOINT LeftToeEnd
            {
              OFFSET -0.009607 -1.647619 6.513017
              CHANNELS 3 Zrotation Yrotation Xrotation
            }
          }
        }
      }
    }
    JOINT RightLeg
    {
      OFFSET -10.047278 -8.29526 2.620317
      CHANNELS 3 Zrotation Yrotation Xrotation
      JOINT RightShin
      {
        OFFSET 1e-06 -43.362206 -0.805556
        CHANNELS 3 Zrotation Yrotation Xrotation
        JOINT RightFoot
        {
          OFFSET 2e-06 -42.117393 -3.478398
          CHANNELS 3 Zrotation Yrotation Xrotation
          JOINT RightToeBase
          {
            OFFSET -0.0 -5.079609 13.284196
            CHANNELS 3 Zrotation Yrotation Xrotation
            JOINT RightToeEnd
            {
              OFFSET 0.009532 -1.634378 6.460591
              CHANNELS 3 Zrotation Yrotation Xrotation
            }
          }
        }
      }
    }
  }
}
MOTION
Frames: 4
Frame Time: 0.03333333333333333
-0.031422 0.0 -0.450533 0.0 0.028004 0.0 0.0 99.50705 0.0 -0.558965 -0.037198 -3.813393 1.378974 -0.144327 0.568947 -0.043792 -0.389251 -4.704682 -0.783452 -2.324264 11.394416 -5.3817 6.374656 11.850489 0.291547 2.822302 -3.727846 3.143849 1.491555 -10.327949 0.000251 -0.001762 -0.000604 -0.009376 0.027109 -0.036832 0.711035 -3.712417 -10.540812 -0.731572 3.763216 -10.534511 -17.06974 -2.197431 16.182718 -65.104042 -2.625713 -1.559767 -0.130895 -25.092602 0.089229 0.027871 -3.946076 6.992327 -5.835302 9.900397 0.600902 -10.977613 -0.388158 7.112685 -0.002228 8.765104 -0.002519 -15.902685 18.104507 6.254573 -1.837978 2.492031 -2.505611 -10.151146 4.677082 4.6291 -20.926569 0.003034 -0.011708 -21.163666 2.464158 -3.588236 -8e-06 -0.001841 0.001863 -1.358867 2.224732 -0.740124 -21.307604 0.594385 3.003052 -13.788809 0.000663 -0.000758 -23.876734 -0.253292 -0.852345 -60.749622 2.600693 -1.027053 -0.289805 1.65643 0.844946 -14.197397 0.109362 1.300038 -34.150372 -0.289703 0.971595 -19.960554 0.95071 1.194902 -0.00139 -0.00037 0.005712 -3.416817 0.767251 0.502475 -15.926683 -3.147181 3.003783 -6.325223 -0.003341 0.000878 -18.056339 3.665895 -4.91593 -0.008735 0.000856 0.002882 16.830088 6.673361 18.509449 63.54427 7.547091 6.300237 -0.089661 19.339218 0.01415 0.119561 -9.141279 0.43879 2.247548 -5.240263 -3.170937 14.289531 -0.81523 6.950762 -0.005961 -12.688109 -0.002872 15.710929 -17.732679 3.020092 1.667786 -1.955647 -2.873379 4.733496 -4.168736 4.99369 11.034117 -0.000991 -0.002556 12.124995 -3.74097 -2.860803 0.005103 -0.000347 -0.005069 1.294165 -1.929036 -1.490174 14.809899 0.572807 3.864262 14.269315 -1.343295 -6.662289 19.641823 0.14291 -0.656603 50.071758 -0.525206 -6.555879 0.357021 -1.506079 -0.024801 20.231825 3.674246 2.318959 18.820456 0.001779 -0.005179 10.75421 -0.473671 1.410761 0.009709 0.005178 -0.006817 3.288674 0.31424 -0.578843 21.489885 11.816664 2.268713 8.175392 0.001091 0.000759 18.402531 -3.791615 -4.94101 -0.000425 -0.002198 0.0009 3.095084 4.573785 3.602577 0.053139 -0.186972 10.157499 -6.094521 5.249957 -10.083605 1.661057 -1.958981 -1.397341 9.8e-05 0.000421 0.000413 -3.343311 -0.155128 1.942521 -0.004013 0.262161 9.689192 7.089193 -5.941639 -8.079908 -1.43472 0.983821 -0.786115 -0.000701 0.001007 0.003018 
-0.094484 0.0 -0.395166 0.0 0.069842 0.0 0.0 99.519958 0.0 -0.548199 -0.039098 -4.097622 1.38627 -0.109339 0.545516 -0.026584 -0.397103 -4.788176 -0.838795 -2.368665 11.578099 -5.689892 6.740836 13.260287 0.361397 2.988806 -3.736084 2.994936 1.709102 -9.30599 -0.000191 0.0019 0.001151 -0.008002 0.063743 -0.028727 0.694217 -3.673135 -10.569181 -0.714841 3.814557 -10.57432 -17.016253 -2.095896 16.296982 -65.169907 -2.721618 -1.205343 -0.163022 -25.509863 0.099033 -0.083229 -3.833723 7.863091 -5.880095 9.8052 0.769021 -10.932664 -0.344332 7.165552 0.000736 8.788968 -0.004258 -15.955657 18.116964 6.292052 -1.83899 2.497092 -2.505306 -10.169074 4.684107 4.621397 -20.983391 -0.00201 0.011783 -21.245111 2.448329 -3.601034 0.00868 0.007351 0.003628 -1.360214 2.253784 -0.748612 -21.344776 0.574926 3.012138 -13.835998 0.005064 0.001687 -23.951124 -0.243996 -0.853999 -61.075485 2.638113 -1.010493 -0.293241 1.69725 0.832258 -14.215852 0.084041 1.30027 -34.214844 -0.291271 0.963195 -20.001671 0.967915 1.216833 -0.013261 -0.005115 -0.002903 -3.453686 0.815663 0.482973 -15.91816 -3.182147 3.016827 -6.354799 -0.002053 0.012139 -18.132631 3.649781 -4.908576 0.010446 0.007431 -0.002073 16.736927 6.531403 18.902384 63.607368 7.445231 6.306926 -0.243652 19.624952 -0.011445 0.122336 -9.083671 -0.051441 2.263966 -5.219151 -3.165093 14.28667 -0.84074 6.961797 -0.000273 -12.701971 -0.005613 15.812684 -17.817831 3.006302 1.666674 -1.955354 -2.876804 4.728603 -4.176236 4.993082 11.029436 0.004178 0.003665 12.123966 -3.7313 -2.862619 1.2e-05 -0.007416 -0.001481 1.289208 -1.935777 -1.502838 14.811115 0.577366 3.872394 14.243848 -1.344458 -6.641949 19.659748 0.140851 -0.633053 50.113682 -0.509215 -6.537247 0.350796 -1.521376 -0.035215 20.233028 3.701084 2.342441 18.802635 -0.001082 -0.001609 10.750549 -0.487026 1.403806 0.002082 0.007998 -0.010271 3.274768 0.300941 -0.575831 21.511564 11.847873 2.278909 8.148894 -0.00023 -0.003433 18.40139 -3.79221 -4.925137 -0.010591 -0.00125 -0.000209 3.17221 4.484413 4.236712 0.036256 -0.193934 9.630855 -6.098004 5.354694 -9.998575 1.65646 -1.974873 -1.552883 -0.00146 -0.002272 -0.000736 -3.282773 -0.084824 2.574158 -0.023514 0.208264 9.206339 7.03196 -5.947985 -8.084579 -1.432533 0.975878 -0.956889 -0.000902 -0.001991 0.000427 
-0.136117 0.0 -0.364311 0.0 0.093479 0.0 0.0 99.51236 0.0 -0.58966 -0.045401 -4.42919 1.404036 -0.109244 0.520134 -0.02529 -0.393932 -4.830763 -0.882467 -2.420903 11.720681 -6.081753 7.229736 14.901026 0.441305 3.158197 -3.756181 2.882181 2.006043 -7.972902 0.000506 2.8e-05 -6.6e-05 -0.009589 0.072679 -0.017805 0.675938 -3.668153 -10.598043 -0.699571 3.812399 -10.612891 -17.103466 -1.687202 16.387537 -64.871872 -2.824645 -0.887444 -0.191472 -25.847559 0.12951 -0.211638 -3.57383 8.663782 -5.86301 9.860892 0.631002 -10.938956 -0.377611 7.108406 0.002214 8.767386 -0.000555 -15.924664 18.060892 6.300856 -1.844498 2.494743 -2.509777 -10.165721 4.678171 4.639957 -20.996317 -0.01129 -0.003089 -21.22192 2.467218 -3.589357 -3e-06 -0.000618 0.000619 -1.35694 2.233534 -0.739803 -21.338078 0.579271 3.010563 -13.830817 -0.005841 0.006064 -23.90321 -0.25033 -0.838244 -61.184917 2.642388 -0.884275 -0.288892 1.676646 0.834969 -14.222391 0.092706 1.315203 -34.220402 -0.316321 0.974402 -20.031601 0.945399 1.219446 -0.015863 0.008483 -0.003499 -3.433616 0.775582 0.504727 -15.925299 -3.154946 3.000823 -6.33947 0.002709 0.002572 -18.09901 3.639166 -4.895724 -0.001899 0.003808 0.004951 16.758165 6.290692 18.84474 63.516445 7.305424 6.346644 -0.423432 19.926161 -0.072895 0.2263 -8.923155 -0.591335 2.241973 -5.299128 -3.226367 14.297794 -0.800911 6.927858 0.006394 -12.673442 -0.009449 15.859699 -17.865705 3.000992 1.663844 -1.954524 -2.873138 4.720832 -4.168085 5.000278 11.002966 0.002309 -0.003989 12.08857 -3.73754 -2.858294 -0.000361 0.002106 -0.006353 1.289632 -1.916575 -1.491867 14.78056 0.552985 3.874539 14.215026 -1.341926 -6.654956 19.559801 0.1377 -0.637835 49.95697 -0.512251 -6.571673 0.349169 -1.494839 -0.020564 20.203682 3.673563 2.307477 18.789974 -0.006331 0.002475 10.725595 -0.47846 1.396411 0.00642 0.002908 0.009181 3.262019 0.326484 -0.565277 21.477724 11.799789 2.25805 8.146978 -0.005636 -0.003842 18.349663 -3.805899 -4.924339 0.009386 -0.000254 0.000599 3.232418 4.368423 4.695302 0.023181 -0.200444 9.391019 -6.135591 5.442616 -9.858994 1.65197 -1.983174 -1.588523 0.000541 -0.000658 0.003782 -3.225059 -0.015502 3.056532 -0.035363 0.161932 8.934372 6.891198 -5.981923 -7.950712 -1.426054 0.969255 -1.038637 -9e-05 -0.001642 0.003053 
-0.155439 0.0 -0.321254 0.0 0.08926 0.0 0.0 99.487343 0.0 -0.60785 -0.049625 -4.694756 1.430256 -0.103463 0.542116 -0.036154 -0.398343 -4.876571 -0.92409 -2.463696 11.874168 -6.488854 7.787198 16.546593 0.507847 3.271291 -3.763849 2.792759 2.228709 -6.582216 -9.3e-05 -0.00121 -0.000934 -0.012963 0.063129 -0.01525 0.661141 -3.670741 -10.63444 -0.689662 3.810286 -10.656471 -17.239508 -1.306313 16.482742 -64.538933 -2.916064 -0.621272 -0.25865 -26.144499 0.137876 -0.264838 -3.345946 9.491032 -5.841662 9.874457 0.786326 -10.962612 -0.374256 7.19009 -0.004736 8.764458 0.006793 -15.896903 18.078047 6.291836 -1.838061 2.50295 -2.512877 -10.153835 4.675869 4.623692 -20.960945 -0.000288 0.001054 -21.22345 2.451784 -3.588889 -0.011026 0.001723 -0.004925 -1.353716 2.231325 -0.743157 -21.299982 0.596293 2.992946 -13.809055 0.003914 0.008717 -23.864168 -0.249143 -0.831077 -60.951508 2.665167 -0.848533 -0.287159 1.677368 0.829445 -14.197746 0.102522 1.297441 -34.149616 -0.271093 0.959311 -20.003326 0.968845 1.208279 -0.005354 0.006551 0.005948 -3.421692 0.771355 0.496683 -15.925621 -3.136658 2.995685 -6.333589 -0.007815 -0.004278 -18.110479 3.645358 -4.892459 0.011959 0.006179 0.007008 16.851162 6.052828 18.697948 63.320396 7.235635 6.328499 -0.500276 20.244949 -0.089194 0.312442 -8.778802 -0.795553 2.20618 -5.281686 -3.174677 14.307762 -0.800602 6.939783 -0.000352 -12.677708 -0.00204 15.894146 -17.955286 2.997798 1.665506 -1.956512 -2.880574 4.718347 -4.164142 5.00301 11.000674 -0.003964 -0.007172 12.090141 -3.726015 -2.86801 -0.00619 0.003363 3.4e-05 1.292109 -1.915441 -1.501355 14.772017 0.553149 3.86224 14.216455 -1.344385 -6.654678 19.575211 0.153917 -0.648289 49.952461 -0.508298 -6.586609 0.350126 -1.493842 -0.034484 20.192026 3.66522 2.308681 18.747057 -0.000952 0.001009 10.748065 -0.476536 1.38716 0.007822 0.001891 0.006331 3.251001 0.332744 -0.585816 21.473593 11.770328 2.257962 8.133075 -0.00301 0.001404 18.324673 -3.788545 -4.930561 -0.009904 -0.00331 0.008182 3.271216 4.276128 5.004117 0.016071 -0.201136 9.395309 -6.187882 5.525723 -9.880089 1.644257 -1.996642 -1.576184 -0.000571 -0.005601 0.007693 -3.192425 0.043067 3.361966 -0.038924 0.117343 8.937955 6.805923 -5.997411 -7.876215 -1.421223 0.96965 -1.024281 0.00039 -0.002033 0.000454 
